<svg width="213" height="164" viewBox="0 0 213 164" fill="none" xmlns="http://www.w3.org/2000/svg">
<path fill-rule="evenodd" clip-rule="evenodd" d="M34.2909 10.4038C38.827 4.45584 45.4256 0 55.182 0C64.8162 0 71.6741 4.33331 76.6368 10.0302C81.1104 15.1657 84.3227 21.7448 87.0318 27.2934L87.1474 27.5302L87.3452 27.9351C90.3477 34.0815 92.8443 39.0344 96.0003 42.5837C98.8287 45.7646 101.841 47.4331 106.219 47.4331C110.586 47.4331 113.545 45.7754 116.316 42.619C119.426 39.0766 121.863 34.1376 124.834 27.971C124.834 27.9711 124.834 27.971 124.834 27.971L124.944 27.7431L125.06 27.5017C127.758 21.9003 130.976 15.2166 135.548 10.0087C140.58 4.27731 147.523 0 157.256 0C167.049 0 173.852 4.33677 178.657 10.2014C182.738 15.1824 185.551 21.5019 187.914 26.8121L188.025 27.0608C188.19 27.4315 188.353 27.7978 188.515 28.1612C191.237 34.2564 193.562 39.0827 196.692 42.5109C199.444 45.5244 202.795 47.4331 208.293 47.4331H212.438V62.1769H208.293C198.026 62.1769 190.642 58.1539 185.275 52.2763C180.287 46.8128 177.109 39.7861 174.532 34.0156L174.159 33.1799C171.53 27.2845 169.452 22.6997 166.72 19.3651C164.244 16.3428 161.563 14.7437 157.256 14.7437C152.889 14.7437 149.93 16.4014 147.159 19.5579C144.049 23.1003 141.611 28.0393 138.64 34.2059L138.414 34.6752C135.717 40.2766 132.498 46.9602 127.926 52.1681C122.894 57.8996 115.952 62.1769 106.219 62.1769C96.4972 62.1769 89.5271 57.9105 84.4524 52.2035C79.78 46.9487 76.4781 40.1885 73.7131 34.5275L73.5956 34.287L73.5737 34.2422C70.5549 28.0624 68.0949 23.1019 64.9889 19.5364C62.2099 16.3462 59.3272 14.7437 55.182 14.7437C53.0157 14.7437 51.4469 15.1789 50.1955 15.8519C48.9216 16.537 47.7446 17.5939 46.5481 19.1628C44.1824 22.2648 42.3956 26.4476 40.0941 31.9255L40.0914 31.9318C39.8231 32.5705 39.5485 33.224 39.2682 33.8862C36.7888 39.742 33.6287 46.8533 28.3391 52.3963C22.6715 58.3354 14.8873 62.1769 4.14513 62.1769H0V47.4331H4.14513C10.5849 47.4331 14.3276 45.3448 17.1465 42.3908C20.342 39.0422 22.6282 34.2999 25.1725 28.2907C25.4419 27.6545 25.7124 27.0085 25.9889 26.348C26.0226 26.2676 26.0564 26.1869 26.0903 26.106C28.1952 21.0779 30.6835 15.134 34.2909 10.4038Z" fill="url(#paint0_linear_1390_2)"/>
<path d="M25.1814 161.665H37.6686V98.763H61.8139V87.053H1.03601V98.763H25.1814V161.665Z" fill="white"/>
<path d="M84.132 163.22C89.5207 163.22 94.443 161.838 98.899 159.075C103.39 156.277 106.706 152.339 108.847 147.261L96.5156 143.53C94.0285 148.85 89.6588 151.51 83.4066 151.51C79.1579 151.51 75.8072 150.283 73.3547 147.831C70.9021 145.344 69.4341 141.786 68.9505 137.157H109.469C109.953 130.421 109.21 124.584 107.241 119.644C105.272 114.704 102.25 110.887 98.1736 108.193C94.1321 105.499 89.2098 104.152 83.4066 104.152C77.9143 104.152 73.0783 105.395 68.8987 107.882C64.719 110.335 61.4547 113.824 59.1058 118.349C56.7569 122.874 55.5825 128.193 55.5825 134.307C55.5825 139.972 56.7742 144.981 59.1576 149.333C61.5756 153.686 64.9263 157.088 69.2096 159.541C73.4929 161.993 78.467 163.22 84.132 163.22ZM83.9247 115.084C87.7935 115.084 90.7642 116.103 92.8368 118.141C94.9439 120.145 96.2738 123.34 96.8264 127.727H69.2614C70.7467 119.299 75.6345 115.084 83.9247 115.084Z" fill="white"/>
<path d="M150.72 161.665V151.199C147.231 151.717 144.122 151.855 141.393 151.613C138.664 151.371 136.678 150.214 135.434 148.142C134.778 147.071 134.415 145.689 134.346 143.997C134.312 142.269 134.294 140.301 134.294 138.09V115.499H150.72V105.706H134.294V90.1618H121.859V105.706H111.704V115.499H121.859V138.815C121.859 142.028 121.894 144.895 121.963 147.416C122.032 149.903 122.705 152.356 123.983 154.774C125.434 157.434 127.559 159.385 130.357 160.629C133.155 161.838 136.315 162.477 139.839 162.546C143.396 162.65 147.023 162.356 150.72 161.665Z" fill="white"/>
<path d="M175.292 163.22C179.748 163.22 183.53 162.494 186.639 161.043C189.782 159.558 192.546 157.261 194.929 154.152V161.665H205.862V127.312C205.862 124.895 205.758 122.667 205.551 120.628C205.344 118.556 204.739 116.535 203.737 114.566C201.907 110.87 199.091 108.21 195.292 106.587C191.527 104.963 187.157 104.152 182.183 104.152C175.62 104.152 170.387 105.585 166.483 108.452C162.58 111.319 159.937 115.119 158.556 119.851L169.955 123.426C170.887 120.559 172.528 118.539 174.877 117.364C177.226 116.19 179.661 115.603 182.183 115.603C185.983 115.603 188.78 116.38 190.577 117.934C192.373 119.454 193.392 121.82 193.634 125.033C188.729 125.758 184.169 126.466 179.955 127.157C175.775 127.813 172.217 128.625 169.281 129.592C164.86 131.112 161.63 133.271 159.592 136.069C157.554 138.832 156.535 142.252 156.535 146.328C156.535 149.403 157.243 152.218 158.659 154.774C160.11 157.33 162.234 159.385 165.032 160.94C167.83 162.46 171.25 163.22 175.292 163.22ZM177.779 153.271C174.842 153.271 172.597 152.598 171.043 151.251C169.523 149.903 168.763 148.211 168.763 146.173C168.763 144.342 169.35 142.857 170.525 141.717C171.734 140.577 173.409 139.61 175.551 138.815C177.52 138.159 179.886 137.589 182.649 137.105C185.413 136.587 189.022 135.983 193.478 135.292C193.444 136.604 193.357 138.073 193.219 139.696C193.081 141.285 192.753 142.719 192.235 143.997C191.82 145.275 191.008 146.639 189.799 148.09C188.625 149.541 187.036 150.767 185.033 151.769C183.029 152.77 180.611 153.271 177.779 153.271Z" fill="white"/>
<defs>
<linearGradient id="paint0_linear_1390_2" x1="208.293" y1="58.0318" x2="4.14512" y2="58.0318" gradientUnits="userSpaceOnUse">
<stop stop-color="#22D3B6"/>
<stop offset="0.229167" stop-color="#3285FF"/>
<stop offset="0.473958" stop-color="#9A55FE"/>
<stop offset="0.734375" stop-color="#FF5BB1"/>
<stop offset="1" stop-color="#FFBF2F"/>
</linearGradient>
</defs>
</svg>
