<svg width="369" height="284" viewBox="0 0 369 284" fill="none" xmlns="http://www.w3.org/2000/svg">
<path fill-rule="evenodd" clip-rule="evenodd" d="M60.1402 18.9612C68.0038 8.64991 79.4431 0.925339 96.3566 0.925339C113.058 0.925339 124.947 8.43749 133.55 18.3135C141.306 27.2163 146.874 38.6218 151.571 48.2408L151.771 48.6512L152.114 49.3531C157.319 60.0084 161.647 68.5947 167.119 74.7477C172.022 80.2621 177.243 83.1547 184.833 83.1547C192.404 83.1547 197.533 80.2809 202.337 74.809C207.728 68.6679 211.954 60.1058 217.104 49.4155C217.104 49.4154 217.104 49.4155 217.104 49.4155L217.295 49.0204L217.496 48.6019C222.173 38.8913 227.753 27.3047 235.679 18.2763C244.401 8.34042 256.437 0.925339 273.31 0.925339C290.287 0.925339 302.082 8.4435 310.412 18.6104C317.486 27.2452 322.362 38.2008 326.459 47.4063L326.651 47.8375C326.937 48.4802 327.22 49.1152 327.501 49.7451C332.22 60.3117 336.25 68.6785 341.676 74.6215C346.446 79.8458 352.256 83.1547 361.787 83.1547H368.973V108.714H361.787C343.989 108.714 331.188 101.74 321.884 91.5506C313.237 82.0793 307.728 69.8979 303.26 59.8943L302.614 58.4456C298.055 48.2253 294.454 40.2772 289.718 34.4964C285.425 29.257 280.778 26.4848 273.31 26.4848C265.739 26.4848 260.61 29.3586 255.806 34.8305C250.415 40.9717 246.189 49.5338 241.039 60.2242L240.647 61.0376C235.971 70.7482 230.39 82.3349 222.465 91.3632C213.742 101.299 201.706 108.714 184.833 108.714C167.98 108.714 155.897 101.318 147.099 91.4245C138.999 82.3148 133.275 70.5954 128.482 60.7817L128.278 60.3648L128.24 60.2871C123.007 49.5739 118.742 40.9744 113.358 34.7933C108.54 29.2629 103.543 26.4848 96.3566 26.4848C92.6011 26.4848 89.8815 27.2392 87.7121 28.4059C85.5038 29.5935 83.4632 31.4258 81.3889 34.1457C77.2878 39.5233 74.1903 46.7745 70.2005 56.2708L70.1959 56.2818C69.7306 57.3891 69.2547 58.522 68.7686 59.6699C64.4704 69.8214 58.9922 82.1494 49.8221 91.7588C39.9969 102.055 26.5023 108.714 7.87989 108.714H0.69397V83.1547H7.87989C19.0438 83.1547 25.532 79.5344 30.4189 74.4134C35.9585 68.6083 39.9218 60.3871 44.3326 49.9696C44.7996 48.8668 45.2685 47.7469 45.748 46.6019C45.8064 46.4624 45.8649 46.3226 45.9236 46.1823C49.5727 37.4656 53.8864 27.1614 60.1402 18.9612Z" fill="url(#paint0_linear_1509_3)"/>
<path d="M44.3481 281.186H65.9957V172.139H107.854V151.839H2.49011V172.139H44.3481V281.186Z" fill="black"/>
<path d="M146.544 283.88C155.886 283.88 164.419 281.485 172.144 276.695C179.929 271.844 185.677 265.017 189.39 256.215L168.012 249.747C163.7 258.969 156.125 263.58 145.286 263.58C137.921 263.58 132.112 261.454 127.861 257.203C123.609 252.891 121.064 246.723 120.226 238.699H190.468C191.306 227.022 190.019 216.902 186.606 208.338C183.192 199.775 177.952 193.158 170.886 188.487C163.88 183.817 155.347 181.481 145.286 181.481C135.765 181.481 127.382 183.637 120.136 187.948C112.89 192.2 107.231 198.248 103.159 206.093C99.087 213.938 97.051 223.159 97.051 233.759C97.051 243.579 99.1169 252.262 103.249 259.808C107.441 267.353 113.249 273.251 120.675 277.503C128.1 281.755 136.723 283.88 146.544 283.88ZM146.185 200.434C152.892 200.434 158.041 202.201 161.634 205.734C165.287 209.207 167.593 214.746 168.551 222.351H120.765C123.339 207.74 131.813 200.434 146.185 200.434Z" fill="black"/>
<path d="M261.979 281.186V263.041C255.931 263.94 250.542 264.179 245.811 263.76C241.08 263.341 237.637 261.335 235.481 257.742C234.343 255.885 233.715 253.49 233.595 250.556C233.535 247.562 233.505 244.148 233.505 240.316V201.153H261.979V184.176H233.505V157.229H211.947V184.176H194.342V201.153H211.947V241.573C211.947 247.142 212.007 252.113 212.127 256.484C212.247 260.796 213.414 265.047 215.63 269.239C218.145 273.85 221.828 277.234 226.678 279.389C231.529 281.485 237.008 282.593 243.116 282.713C249.284 282.892 255.572 282.383 261.979 281.186Z" fill="black"/>
<path d="M304.577 283.88C312.302 283.88 318.859 282.623 324.248 280.108C329.698 277.533 334.488 273.551 338.62 268.161V281.186H357.573V221.632C357.573 217.441 357.393 213.578 357.034 210.045C356.675 206.452 355.627 202.949 353.89 199.536C350.716 193.128 345.836 188.517 339.249 185.703C332.722 182.888 325.146 181.481 316.523 181.481C305.146 181.481 296.073 183.966 289.307 188.936C282.54 193.907 277.959 200.494 275.564 208.698L295.325 214.896C296.942 209.925 299.786 206.422 303.858 204.386C307.93 202.35 312.152 201.332 316.523 201.332C323.11 201.332 327.961 202.68 331.075 205.374C334.189 208.009 335.955 212.111 336.374 217.68C327.871 218.938 319.967 220.165 312.661 221.363C305.415 222.501 299.247 223.908 294.157 225.585C286.492 228.22 280.893 231.962 277.36 236.813C273.827 241.603 272.06 247.532 272.06 254.598C272.06 259.927 273.288 264.808 275.743 269.239C278.258 273.671 281.941 277.234 286.792 279.928C291.642 282.563 297.571 283.88 304.577 283.88ZM308.888 266.634C303.798 266.634 299.906 265.467 297.211 263.131C294.576 260.796 293.259 257.861 293.259 254.328C293.259 251.155 294.277 248.58 296.313 246.604C298.409 244.627 301.313 242.951 305.026 241.573C308.439 240.436 312.541 239.448 317.332 238.609C322.122 237.711 328.38 236.663 336.105 235.465C336.045 237.741 335.895 240.286 335.656 243.1C335.416 245.855 334.847 248.34 333.949 250.556C333.231 252.771 331.823 255.137 329.728 257.652C327.692 260.167 324.937 262.293 321.464 264.029C317.99 265.766 313.799 266.634 308.888 266.634Z" fill="black"/>
<defs>
<linearGradient id="paint0_linear_1509_3" x1="361.787" y1="101.528" x2="7.87989" y2="101.528" gradientUnits="userSpaceOnUse">
<stop stop-color="#22D3B6"/>
<stop offset="0.229167" stop-color="#3285FF"/>
<stop offset="0.473958" stop-color="#9A55FE"/>
<stop offset="0.734375" stop-color="#FF5BB1"/>
<stop offset="1" stop-color="#FFBF2F"/>
</linearGradient>
</defs>
</svg>
